<svg xmlns="http://www.w3.org/2000/svg" xmlns:xlink="http://www.w3.org/1999/xlink">
    <symbol id="emblem-jedi-order" viewBox="0 0 1024 1024">
        <path d="M521.728 695.854c11.166-16.295 70.743-103.25 70.743-103.25s-45.405 124.877-45.405 124.877c0 0 140.765 20.441 140.765 20.441s-140.765 20.433-140.765 20.433c0 0 54.49 106.714 54.49 106.714s-67.982-71.473-77.589-81.57c3.96 154.74 4.934 192.824 4.934 192.824s347.378-161.21 154.389-517.677c0 0 240.672-265.649 22.707-429.124 0 0 372.356 224.777 136.228 610.758 0 0 195.257-190.715 93.088-383.711 0 0 177.094 249.757-38.6 524.488 0 0 59.033-36.333 111.253-174.832 0 0-38.092 412.311-499.384 417.72 0 0.054 0 0.054 0 0.054-1.538 0-3.067 0-4.599-0.008-1.527 0.008-3.061 0.008-4.595 0.008 0 0 0 0 0-0.054-461.29-5.409-499.382-417.72-499.382-417.72 52.218 138.499 111.247 174.832 111.247 174.832-215.69-274.731-38.596-524.488-38.596-524.488-102.173 192.997 93.092 383.711 93.092 383.711-236.131-385.981 136.221-610.758 136.221-610.758-217.961 163.474 22.711 429.124 22.711 429.124-192.987 356.467 154.391 517.677 154.391 517.677s0.969-38.084 4.928-192.824c-9.608 10.096-77.587 81.57-77.587 81.57s54.488-106.714 54.488-106.714c0 0-140.761-20.433-140.761-20.433s140.761-20.441 140.761-20.441c0 0-45.399-124.877-45.399-124.877s59.571 86.955 70.737 103.25c5.060-197.652 17.605-688.070 17.667-690.385 0.023-5.438 0.023-5.469 0.023-5.469s0 0.006 0.054 2.261c0.060-2.255 0.060-2.261 0.060-2.261s0 0.031 0.023 5.469c0.101 3.868 12.615 493.183 17.661 690.385 0 0 0 0 0 0z" />
    </symbol>
    <symbol id="emblem-sith" viewBox="0 0 1024 1024">
        <path d="M0 0l159.346 271.418-134.546-26.327 159.637 208.072c-6.931 38.869-6.935 78.732 0 117.6l-159.637 208.073 134.546-26.328-159.346 271.492 271.418-159.345-26.327 134.544 208.072-159.637c38.894 6.944 78.781 6.945 117.674 0l208.073 159.637-26.328-134.544 271.418 159.345-159.345-271.491 134.544 26.328-159.637-208.075c6.934-38.87 6.94-78.73 0-117.6l159.637-208.072-134.544 26.327 159.345-271.418-271.418 159.345 26.328-134.617-208.147 159.71c-19.423-3.465-39.089-5.235-58.763-5.237s-39.34 1.778-58.763 5.237l-208.146-159.71 26.327 134.617-271.418-159.345zM512 228.072c72.689 0.006 145.376 27.705 200.8 83.128 110.847 110.847 110.833 290.767 0 401.6s-290.752 110.775-401.6-0.073c-110.848-110.847-110.833-290.767 0-401.6 55.418-55.417 128.113-83.059 200.801-83.056zM512 311.854c-51.239-0.001-102.464 19.483-141.528 58.547-78.128 78.128-78.138 204.99 0 283.127s204.925 78.129 283.054 0c78.129-78.127 78.138-204.989 0-283.127-39.068-39.070-90.286-58.543-141.526-58.547z" />
    </symbol>
    <symbol id="emblem-galactic-republic" viewBox="0 0 1024 1024">
        <path d="M512 1024c-136.704 0-265.387-53.248-361.984-150.016-96.768-96.597-150.016-225.28-150.016-361.984s53.248-265.387 150.016-361.984 225.28-150.016 361.984-150.016 265.387 53.248 361.984 150.016c96.768 96.768 150.016 225.28 150.016 361.984s-53.248 265.387-150.016 361.984c-96.597 96.768-225.28 150.016-361.984 150.016zM512 54.443c-252.416 0-457.557 205.141-457.557 457.557s205.141 457.557 457.557 457.557 457.557-205.141 457.557-457.557-205.141-457.557-457.557-457.557z"/>
        <path d="M280.405 208.213c52.736-40.107 114.859-65.877 180.395-74.752v-51.2c-79.189 9.387-154.112 40.448-216.747 89.771l36.352 36.181z"/>
        <path d="M563.029 133.461c65.536 8.875 127.829 34.645 180.395 74.752l36.181-36.181c-62.635-49.323-137.557-80.384-216.747-89.771v51.2z"/>
        <path d="M815.787 280.405c40.107 52.736 65.877 114.859 74.752 180.395h51.371c-9.387-79.189-40.448-154.112-89.771-216.747l-36.352 36.352z"/>
        <path d="M890.539 563.029c-8.875 65.536-34.645 127.829-74.752 180.395l36.181 36.181c49.323-62.635 80.384-137.557 89.771-216.747h-51.2z"/>
        <path d="M743.595 815.787c-52.736 40.107-114.859 65.877-180.395 74.752v51.371c79.189-9.387 154.112-40.448 216.747-89.771l-36.352-36.352z"/>
        <path d="M460.971 890.539c-65.536-8.875-127.829-34.645-180.395-74.752l-36.181 36.181c62.635 49.323 137.557 80.384 216.747 89.771v-51.2z"/>
        <path d="M208.213 743.595c-40.107-52.736-65.877-114.859-74.752-180.395h-51.2c9.387 79.189 40.448 154.112 89.771 216.747l36.181-36.352z"/>
        <path d="M133.461 460.971c8.875-65.536 34.645-127.829 74.752-180.395l-36.181-36.181c-49.323 62.635-80.384 137.557-89.771 216.747h51.2z"/>
        <path d="M832.853 545.109v-66.389h-165.205c-4.096-19.285-11.776-37.376-22.187-53.419l116.736-116.736-46.933-46.933-116.736 116.736c-16.043-10.411-34.133-18.091-53.419-22.187v-165.035h-66.389v165.205c-19.285 4.096-37.376 11.776-53.419 22.187l-116.736-116.736-46.933 46.933 116.736 116.736c-10.411 16.043-18.091 34.133-22.187 53.419h-165.035v66.389h165.205c4.096 19.285 11.776 37.376 22.187 53.419l-116.736 116.736 46.933 46.933 116.736-116.736c16.043 10.411 34.133 18.091 53.419 22.187v165.035h66.389v-165.205c19.285-4.096 37.376-11.776 53.419-22.187l116.736 116.736 46.933-46.933-116.736-116.736c10.411-16.043 18.091-34.133 22.187-53.419h165.035z"/>
    </symbol>
    <symbol id="emblem-alliance-to-restore-the-republic" viewBox="0 0 1024 1024">
        <path d="M13.69 499.43q4.571-124 66.286-232.001t174.287-181.715h2.857q0 0.571-0.571 1.714-4.571 4.571-16 19.143t-29.714 43.714-34.286 63.143-25.429 77.429-8 86 22.286 90 62 88q28.571 28.571 58.286 39.714t51.714 6.571 39.714-13.429 26.857-18.571l9.143-9.143q22.286-29.143 30.286-66.571t3.714-70-12-61.143-15.143-45.714l-8-16.571q-5.714-14.286-17.429-28.286t-24.571-23.429-24.857-16.857-20-10.857l-7.429-3.429 59.429-65.714q22.286 9.714 44.571 29.714t33.714 34.857l10.857 15.429q0.571-27.429-10.571-59.143t-23.143-50l-11.429-17.714 92-104.571 91.429 103.429q-18.857 26.286-30 58.571t-12.857 51.714l-2.286 18.857q12.571-21.143 35.143-41.429t38.571-30l16-9.714 58.857 65.714q-25.143 8-48.571 28.571t-34.286 37.143l-10.857 16.571q-17.714 32-27.429 76.286t-4 97.143 32.571 89.429q18.857 25.714 44.286 34.571t48.571 3.143 43.429-15.143 32.857-19.143l12-9.143q34.286-30.286 55.143-65.714t27.714-69.429 5.714-69.429-10.286-67.429-21.143-61.429-26-53.143-25.714-41.143-19.714-27.143l-7.429-9.714q-8-7.429-4-7.429l5.714 1.714q22.857 16.571 35.714 26.286t35.429 28.571 36.571 33.143 33.429 37.143 31.714 44 26 50.286 21.714 58.857 13.429 66.857 6 77.714q1.714 148.001-61.714 265.716t-178.287 183.43-260.573 65.714q-105.714 0-200.572-42.286t-162.001-113.143-105.143-167.43-34.571-201.715z" />
    </symbol>
    <symbol id="emblem-resistance" viewBox="0 0 1024 1024">
        <path d="M13.69 499.43q4.571-124 66.286-232.001t174.287-181.715h2.857q0 0.571-0.571 1.714-4.571 4.571-16 19.143t-29.714 43.714-34.286 63.143-25.429 77.429-8 86 22.286 90 62 88q28.571 28.571 58.286 39.714t51.714 6.571 39.714-13.429 26.857-18.571l9.143-9.143q22.286-29.143 30.286-66.571t3.714-70-12-61.143-15.143-45.714l-8-16.571q-5.714-14.286-17.429-28.286t-24.571-23.429-24.857-16.857-20-10.857l-7.429-3.429 59.429-65.714q22.286 9.714 44.571 29.714t33.714 34.857l10.857 15.429q0.571-27.429-10.571-59.143t-23.143-50l-11.429-17.714 92-104.571 91.429 103.429q-18.857 26.286-30 58.571t-12.857 51.714l-2.286 18.857q12.571-21.143 35.143-41.429t38.571-30l16-9.714 58.857 65.714q-25.143 8-48.571 28.571t-34.286 37.143l-10.857 16.571q-17.714 32-27.429 76.286t-4 97.143 32.571 89.429q18.857 25.714 44.286 34.571t48.571 3.143 43.429-15.143 32.857-19.143l12-9.143q34.286-30.286 55.143-65.714t27.714-69.429 5.714-69.429-10.286-67.429-21.143-61.429-26-53.143-25.714-41.143-19.714-27.143l-7.429-9.714q-8-7.429-4-7.429l5.714 1.714q22.857 16.571 35.714 26.286t35.429 28.571 36.571 33.143 33.429 37.143 31.714 44 26 50.286 21.714 58.857 13.429 66.857 6 77.714q1.714 148.001-61.714 265.716t-178.287 183.43-260.573 65.714q-105.714 0-200.572-42.286t-162.001-113.143-105.143-167.43-34.571-201.715z" />
    </symbol>
    <symbol id="emblem-galactic-empire" viewBox="0 0 1024 1024">
        <path d="M1024 511q0 205.467-153.1 359.233t-357.899 153.766q-208.802 0-360.902-152.099t-152.099-360.902q0-204.8 152.099-357.899t356.899-153.1q208.802 0 361.902 151.765t153.1 359.233zM873.903 246.161q-118.744-160.104-314.205-182.119v32.021q43.362 4.67 84.055 19.345l-15.343 44.028q18.679 8.673 137.422 79.385l31.354-32.688q27.352 26.684 50.032 58.037zM961.293 511.666q0-92.728-39.359-184.119l-27.352 15.343q16.678 41.361 25.349 85.389l-46.030 8.673q7.338 26.684 7.338 53.368 0 7.338-8.005 104.068l46.030 10.674q-8.005 37.358-24.683 72.047l28.685 16.678q38.024-88.724 38.024-182.119zM464.304 96.062v-33.355q-195.461 22.014-314.205 183.453l26.684 15.343q25.349-33.355 57.371-63.375l32.021 34.689q52.033-40.693 138.090-76.716l-13.343-46.697q35.357-9.339 73.381-13.343zM803.858 412.268q-18.679-52.701-57.371-98.73l-108.738 90.725q-36.023-44.028-92.728-56.036l28.018-138.090q-30.687-6.004-60.706-6.004-28.018 0-54.035 2.669l26.017 140.091q-56.036 12.008-96.729 55.37l-106.069-94.728q-38.024 43.362-57.371 96.729l131.418 48.698q-8.673 28.685-8.673 58.037 0 28.018 8.005 53.368l-134.755 44.028q18.679 55.37 57.371 98.73l106.737-90.059q38.024 44.696 94.728 56.036l-28.018 138.090q30.687 6.671 61.373 6.671 26.684 0 53.368-4.67l-26.017-140.091q56.036-9.339 96.729-53.368l106.069 94.728q37.358-42.027 57.371-98.73l-131.418-48.031q8.673-28.018 8.673-56.036 0-27.352-8.673-53.368zM873.903 776.505l-26.684-17.344q-25.349 35.357-57.371 62.707l-32.021-34.689q-69.379 64.042-138.090 77.384l13.343 44.028q-37.358 11.34-73.381 15.343v32.688q197.462-21.348 314.205-180.118zM150.766 428.279l-46.030-12.675q8.673-37.358 24.683-72.714l-27.352-15.343q-39.359 88.058-39.359 184.119 0 93.394 38.024 182.119l28.685-16.678q-18.012-40.693-27.352-82.72l48.031-8.673q-8.005-36.691-8.005-74.715 0-36.023 8.673-82.72zM464.304 957.29v-33.355q-43.362-4.67-84.055-16.678l15.343-45.363q-77.384-25.349-135.421-81.386h-2.001l-31.354 36.691q-28.685-27.352-50.032-58.037l-28.018 17.344q117.409 160.771 315.539 180.784z" />
    </symbol>
    <symbol id="emblem-new-republic" viewBox="0 0 1024 1024">
        <path d="M511.967-0.080c-282.714 0-512 229.458-512 512s229.287 512 512 512 512-229.287 512-512-229.458-512-512-512zM511.967 1005.084c-272.096 0-492.822-220.896-492.822-492.993s220.725-492.993 492.822-492.993 493.164 220.896 493.164 492.993-221.068 492.993-493.164 492.993zM429.773 51.805l-5.993 29.967-13.014-10.274 3.424 16.439-29.624-7.877 23.117 20.035-15.583 6.336 15.925 5.137-21.576 21.748 28.939-9.932-2.397 16.61 12.501-11.13 8.048 29.624 5.993-29.967 13.014 10.274-3.254-16.267 29.624 7.706-23.117-20.035 15.583-6.336-15.925-5.309 21.576-21.748-28.939 9.932 2.226-16.61-12.501 11.302-8.048-29.624zM598.955 53.003l-7.192 29.624-12.671-10.788 2.569 16.439-29.282-9.075 22.090 21.062-15.754 5.651 15.754 5.993-22.432 20.891 29.282-8.733-2.911 16.267 12.843-10.616 6.85 29.967 7.192-29.795 12.671 10.788-2.569-16.61 29.11 9.075-22.261-21.062 15.754-5.479-15.754-5.822 22.432-20.891-29.282 8.562 3.082-16.267-12.843 10.616-6.678-29.795zM273.775 118.244l-6.336 29.967-13.014-10.446 3.082 16.61-29.282-8.219 22.775 20.377-15.754 5.993 15.925 5.479-21.918 21.576 28.939-9.589-2.569 16.61 12.671-10.96 7.706 29.624 6.336-29.967 13.014 10.446-3.254-16.61 29.453 8.219-22.775-20.377 15.583-5.993-15.754-5.479 21.918-21.404-28.939 9.418 2.397-16.439-12.671 10.96-7.534-29.795zM753.582 121.327l-7.020 29.795-12.843-10.788 2.911 16.61-29.453-8.905 22.261 20.891-15.754 5.822 15.754 5.822-22.432 20.891 29.282-8.905-2.911 16.439 12.843-10.788 7.020 29.795 7.020-29.795 12.843 10.788-2.911-16.61 29.282 8.905-22.261-20.891 15.754-5.822-15.754-5.822 22.432-20.891-29.282 8.733 2.911-16.439-13.014 10.788-6.678-29.624zM155.279 244.789l-6.336 29.795-13.014-10.446 3.254 16.439-29.282-8.219 22.603 20.377-15.583 5.993 15.925 5.479-21.918 21.404 28.939-9.418-2.397 16.61 12.671-10.96 7.706 29.624 6.165-29.795 13.014 10.274-3.254-16.439 29.453 8.219-22.775-20.549 15.583-5.993-15.754-5.479 21.748-21.404-28.939 9.418 2.569-16.439-12.671 10.96-7.706-29.453zM869.681 249.241l-6.678 29.795-12.843-10.788 2.911 16.61-29.282-8.733 22.432 20.72-15.754 5.822 15.754 5.822-22.261 21.062 29.282-9.075-2.74 16.439 12.843-10.788 7.364 29.795 6.678-29.795 12.843 10.616-2.911-16.61 29.282 8.562-22.432-20.549 15.754-5.822-15.925-5.822 22.261-21.062-29.11 9.075 2.74-16.61-12.843 10.96-7.364-29.624zM99.112 411.746l-6.507 29.967-13.014-10.616 3.082 16.61-29.453-8.391 22.603 20.377-15.583 5.993 15.754 5.651-22.090 21.234 29.11-9.247-2.569 16.61 12.843-10.96 7.364 29.967 6.507-29.967 12.843 10.446-3.082-16.439 29.624 8.562-22.603-20.72 15.583-5.822-15.754-5.479 21.918-21.404-29.11 9.247 2.74-16.439-12.671 10.96-7.534-30.137zM924.478 417.568l-6.678 29.624-12.843-10.616 2.911 16.439-29.453-8.562 22.432 20.891-15.583 5.822 15.754 5.822-22.261 21.062 29.282-9.075-2.74 16.439 12.843-10.788 7.364 29.624 6.678-29.624 12.843 10.616-2.911-16.61 29.282 8.733-22.432-20.72 15.754-5.822-15.754-5.822 22.261-21.234-28.939 9.075 2.74-16.439-12.843 10.788-7.706-29.624zM117.778 589.319l-6.678 29.967-12.843-10.616 2.911 16.439-29.453-8.562 22.432 20.72-15.754 5.822 15.925 5.651-22.261 21.234 29.11-9.075-2.569 16.267 12.843-10.788 7.364 29.795 6.678-29.967 12.843 10.616-3.082-16.61 29.453 8.562-22.432-20.72 15.754-5.822-15.925-5.651 22.261-21.234-29.282 9.075 2.74-16.439-12.843 10.788-7.192-29.453zM903.073 594.97l-6.678 29.967-12.843-10.446 3.082 16.439-29.453-8.391 22.603 20.549-15.583 5.993 15.754 5.651-22.090 21.234 29.11-9.247-2.569 16.439 12.843-10.96 7.364 29.795 6.507-29.967 12.843 10.616-3.082-16.61 29.453 8.391-22.432-20.549 15.583-5.993-15.925-5.651 22.090-21.234-29.11 9.247 2.569-16.439-12.843 10.96-7.192-29.795zM205.109 739.666l-5.993 29.967-13.185-10.274 3.424 16.439-29.624-7.877 22.775 20.206-15.411 6.165 15.925 5.309-21.918 21.576 28.939-9.589-2.397 16.267 12.501-10.96 7.877 29.624 5.993-29.967 13.185 10.446-3.254-16.61 29.624 7.877-22.945-20.206 15.411-6.165-15.925-5.309 21.576-21.748-28.939 9.761 2.397-16.61-12.501 11.13-7.534-29.453zM813.516 744.118l-7.192 29.624-12.843-10.788 2.74 16.439-29.282-9.075 22.261 21.234-15.754 5.479 15.754 5.993-22.432 20.891 29.282-8.733-3.082 16.439 13.014-10.616 6.678 29.795 7.364-29.624 12.671 10.788-2.569-16.61 29.11 9.075-22.090-20.891 15.754-5.651-15.754-5.993 22.432-20.891-29.282 8.562 3.082-16.267-13.014 10.616-6.85-29.795zM345.524 838.641l-6.85 29.795-12.843-10.788 2.911 16.61-29.282-8.733 22.261 20.72-15.583 5.822 15.754 5.822-22.261 21.062 29.282-8.905-2.911 16.439 12.843-10.788 7.192 29.795 6.85-29.795 12.843 10.788-2.911-16.61 29.282 8.733-22.432-20.72 15.754-5.822-15.754-5.822 22.261-21.062-29.11 8.905 2.74-16.439-12.843 10.788-7.192-29.795zM673.101 840.867l-7.192 29.795-12.671-10.788 2.74 16.61-29.282-8.905 22.261 20.891-15.754 5.822 15.754 5.822-22.432 20.891 29.282-8.733-2.911 16.439 12.843-10.788 7.020 29.967 7.020-29.795 12.671 10.788-2.74-16.61 29.282 9.075-22.261-20.891 15.754-5.651-15.754-5.993 22.432-20.891-29.282 8.733 2.911-16.439-13.014 10.788-6.678-30.137zM508.885 873.402l-7.020 29.967-12.843-10.788 2.911 16.61-29.453-8.733 22.432 20.72-15.583 5.822 15.754 5.822-22.261 21.062 29.282-8.905-2.74 16.439 12.843-10.96 7.192 29.967 6.85-29.795 12.843 10.616-2.911-16.61 29.282 8.733-22.432-20.72 15.754-5.822-15.754-5.822 22.261-21.062-29.282 9.075 2.911-16.439-12.843 10.788-7.192-29.967zM511.967 158.485l-64.386 77.228c22.261 31.336 31.508 63.358 31.508 82.366-23.631-28.426-37.673-39.042-55.309-56.68l-45.549 47.262c63.358 30.309 95.037 90.756 95.037 153.942 0 35.96-14.384 115.243-92.64 111.818-57.707-6.678-114.216-84.763-119.010-156.511-4.795-71.578 32.535-134.593 83.564-192.3-104.797 60.447-171.922 169.867-171.922 272.268 0 209.937 150.518 349.496 339.050 349.496 188.361 0 339.050-139.73 339.050-349.496 0-102.4-67.125-211.65-171.922-272.268 51.029 57.878 88.359 120.722 83.564 192.3-4.966 71.748-61.303 149.833-119.010 156.511-78.256 3.254-92.64-76.029-92.64-111.818 0-63.187 31.679-123.633 95.037-153.942l-45.549-47.262c-17.638 17.638-31.85 28.254-55.309 56.68 0-18.836 9.247-51.029 31.508-82.366l-65.070-77.228z" />
    </symbol>
    <symbol id="emblem-confederacy-of-independent-systems" viewBox="0 0 1182 1024">
        <path d="M886.503 0.189h-591.006l-295.503 511.811 295.503 511.811h591.006l295.503-511.811-295.503-511.811zM1112.858 494.466h-334.903l-78.407-135.734 167.451-289.987 245.858 425.721zM836.858 51.409l-167.451 289.987h-156.813l-167.451-289.987h491.717zM315 68.745l167.451 289.987-78.407 135.932h-334.903l245.858-425.918zM69.141 529.534h334.903l78.407 135.734-167.451 289.987-245.858-425.721zM345.142 972.591l167.451-289.987h156.813l167.451 289.987h-491.717zM867 955.255l-167.451-289.987 78.407-135.734h334.903l-245.858 425.721z"/>
    </symbol>
    <symbol id="emblem-first-order" viewBox="0 0 878 1024">
        <path d="M438.916 138.29c-206.899 0-374.671 167.62-374.671 374.519s167.772 374.671 374.671 374.671 374.671-167.772 374.671-374.671-167.772-374.519-374.671-374.519zM755.126 647.696c-0.609 1.522-1.37 3.044-1.979 4.568-1.065 2.284-1.979 4.415-3.044 6.699-0.152 0.305-0.305 0.762-0.457 1.065-0.762 1.675-1.675 3.349-2.436 5.176 0 0 0 0.152-0.152 0.152-3.501 7.004-7.155 14.006-11.266 20.858-43.084-20.858-86.018-41.715-128.95-62.42-0.152 0.305-0.305 0.457-0.457 0.762 35.625 31.819 71.25 63.485 107.027 95.456-19.182 25.272-41.105 47.347-66.531 66.683-31.971-35.929-63.638-71.554-95.456-107.179-0.305 0.152-0.457 0.305-0.762 0.457 20.705 42.932 41.562 86.018 62.42 129.407-27.251 16.138-56.026 28.013-86.931 36.234-15.833-46.282-31.819-91.955-47.652-137.628-0.305 0-0.457 0.152-0.762 0.152 2.741 48.261 5.481 96.37 8.374 144.935-31.362 4.263-62.42 4.263-93.325 0.152-0.305-27.404 5.937-107.027 7.612-144.175-0.305 0-0.457-0.152-0.762-0.152-15.833 45.368-31.514 90.585-47.347 135.954-1.979-0.152-5.176-0.762-8.983-1.675-2.131-0.609-4.415-1.218-6.547-1.979-22.988-7.307-60.746-23.902-71.402-32.276 20.858-43.084 41.715-86.322 62.572-129.559-0.152-0.152-0.457-0.305-0.609-0.457-31.819 35.777-63.638 71.554-95.761 107.636-25.272-19.182-47.347-41.41-66.531-66.683 35.929-32.123 71.707-63.942 107.484-95.913-0.152-0.152-0.305-0.457-0.457-0.609-43.084 20.858-86.322 41.715-129.711 62.725-15.986-27.404-27.861-56.178-35.929-87.083 45.521-15.833 90.889-31.667 136.41-47.5 0-0.152-0.152-0.457-0.152-0.609-47.804 2.741-95.761 5.481-144.022 8.374-4.263-31.362-4.263-62.572 0-94.239 47.957 2.741 95.761 5.481 143.566 8.221 0-0.305 0.152-0.457 0.152-0.762-45.064-15.833-90.281-31.514-135.344-47.195 0-1.522 0.457-3.806 1.065-6.394 1.979-6.851 4.111-13.549 6.394-20.096 4.263-11.723 10.048-25.272 15.529-36.995 3.501-7.155 7.155-14.159 11.113-21.009 0.609-0.914 1.218-1.827 1.827-2.588 43.084 20.858 86.17 41.715 129.254 62.572 0.152-0.152 0.305-0.457 0.457-0.609-35.777-32.123-71.25-63.638-107.179-95.761 19.182-25.12 41.562-47.347 66.683-66.378 31.819 35.777 63.485 71.402 95.152 107.027 0.305-0.152 0.457-0.305 0.762-0.457-20.705-42.932-41.562-86.018-62.268-128.95 26.795-15.681 56.026-27.861 86.931-35.777 15.529 44.76 31.21 89.519 46.739 134.279 0.305 0 0.457-0.152 0.762-0.152-2.741-47.195-5.481-94.391-8.221-141.891 15.224-2.131 30.906-3.197 46.739-3.197 15.986 0 31.667 1.065 47.195 3.197-2.741 47.957-5.481 95.456-8.221 142.956 17.203-44.608 31.667-90.128 47.804-135.192 30.906 8.069 59.984 20.249 86.778 35.929-20.705 42.932-41.715 85.865-61.963 129.102 32.58-35.016 63.485-71.097 95.456-106.722 25.12 19.030 47.5 41.41 66.531 66.378-35.777 31.819-71.25 63.485-106.874 95.304 14.616-6.090 28.774-13.092 43.084-19.944 28.927-14.006 57.243-27.708 86.322-41.715 15.833 26.795 28.165 56.026 36.234 86.778-45.216 15.833-90.281 31.514-135.649 47.347 28.47 0.305 105.962-5.937 143.261-7.46 0.152 0.609 0.457 1.522 0.609 2.436 1.979 14.768 3.044 29.84 3.044 45.064 0 0.152 0 0.305 0 0.609 0 14.616-0.914 28.927-2.741 43.084-0.152 1.065-0.457 2.131-0.609 2.893-47.804-2.588-95.609-5.785-143.413-7.917 45.064 16.138 90.433 31.819 135.954 47.804-4.111 15.986-9.439 31.667-15.681 46.587-0.152 0.914-0.457 1.675-0.762 2.284z"/>
        <path d="M874.332 256.278c-145.088-83.734-290.175-167.62-435.416-251.506-145.24 83.734-290.328 167.925-435.568 251.659-2.588 1.522-3.349 3.197-3.349 6.090 0 167.772 0 335.545 0 503.468 145.392 84.191 290.937 168.077 436.329 252.267 1.979 1.218 3.501 1.37 5.328 0 145.392-84.191 290.937-168.229 436.329-252.419 0-167.772 0-335.392 0-503.165 0.152-3.044-0.762-4.72-3.654-6.394zM846.472 744.675c0 1.218 0 2.436 0 3.958-135.649 78.558-271.298 157.267-407.404 236.13-135.192-78.406-270.384-156.81-405.728-235.216-4.872-154.375 0-312.708-1.675-468.453 0-0.305 0-0.762 0-1.065-0.457-2.741 0.762-4.263 3.197-5.785 133.517-77.339 267.035-154.679 400.4-232.172 2.588-1.522 4.568-1.522 7.155 0 133.517 77.492 266.882 154.831 400.4 232.172 2.588 1.522 3.501 3.044 3.501 5.937 0.152 154.983 0.152 309.663 0.152 464.494z"/>
    </symbol>
</svg>
